<?xml version="1.0" encoding="UTF-8"?>
<svg width="17px" height="21px" viewBox="0 0 17 21" version="1.1" xmlns="http://www.w3.org/2000/svg" xmlns:xlink="http://www.w3.org/1999/xlink">
    <!-- Generator: Sketch 41 (35326) - http://www.bohemiancoding.com/sketch -->
    <title>android icon1</title>
    <desc>Created with Sketch.</desc>
    <defs></defs>
    <g id="Design-Desktop" stroke="none" stroke-width="1" fill="none" fill-rule="evenodd">
        <g id="Homepage" transform="translate(-665.000000, -8014.000000)" fill="#FFFFFF">
            <g id="Footer" transform="translate(0.000000, 7843.000000)">
                <g id="icons" transform="translate(566.000000, 171.000000)">
                    <g id="android-icon1" transform="translate(99.000000, 0.000000)">
                        <path d="M14.1490683,6.84090909 C14.1490683,6.84090909 13.9572118,3.74668141 11.723728,2.12810244 C11.639128,2.06679379 11.5515987,2.00760232 11.4610396,1.9507764 C10.7048134,1.47624332 9.73731306,1.16666676 8.5,1.16666667 C3.20276106,1.16666626 2.85093168,6.84090909 2.85093168,6.84090909 L14.1490683,6.84090909 Z M5.64906832,4.45454545 C5.91148935,4.45454545 6.1242236,4.24086319 6.1242236,3.97727273 C6.1242236,3.71368227 5.91148935,3.5 5.64906832,3.5 C5.3866473,3.5 5.17391304,3.71368227 5.17391304,3.97727273 C5.17391304,4.24086319 5.3866473,4.45454545 5.64906832,4.45454545 Z M11.3509317,4.45454545 C11.6133527,4.45454545 11.826087,4.24086319 11.826087,3.97727273 C11.826087,3.71368227 11.6133527,3.5 11.3509317,3.5 C11.0885106,3.5 10.8757764,3.71368227 10.8757764,3.97727273 C10.8757764,4.24086319 11.0885106,4.45454545 11.3509317,4.45454545 Z" id="Oval-1"></path>
                        <path d="M12.7525976,0.128394937 C12.6768431,0.0846581015 12.5768569,0.116016474 12.5393609,0.180961418 L11.4560376,2.05733254 L11.7187787,2.23579186 L12.8129315,0.340663637 C12.8553644,0.267167707 12.8261365,0.17085266 12.7525976,0.128394937 Z M4.247404,0.128394937 C4.17164958,0.172131773 4.14917571,0.275028746 4.18702367,0.340583323 L5.28051611,2.23456779 L5.55039797,2.06847651 L4.46106277,0.181692606 C4.41881671,0.108520281 4.32094293,0.0859372146 4.247404,0.128394937 Z" id="Path"></path>
                        <rect id="Rectangle-1" x="2.85093168" y="7.21212121" width="11.2981366" height="9.65151515" rx="4.82575758"></rect>
                        <rect id="Rectangle-2" x="0" y="6.68181818" width="2.42857143" height="7.84848485" rx="1.21428571"></rect>
                        <rect id="Rectangle-2-copy" x="14.5714286" y="6.68181818" width="2.42857143" height="7.84848485" rx="1.21428571"></rect>
                        <path d="M9.39751553,16.8636364 L9.39751553,19.6847156 C9.39751553,20.3525515 9.93649424,20.8939394 10.6118012,20.8939394 L10.6118012,20.8939394 C11.2824327,20.8939394 11.826087,20.3503948 11.826087,19.6847156 L11.826087,16.8636364 L9.39751553,16.8636364 Z" id="Rectangle-2-copy-3"></path>
                        <path d="M5.17391304,16.8636364 L5.17391304,19.6847156 C5.17391304,20.3525515 5.71289176,20.8939394 6.38819876,20.8939394 L6.38819876,20.8939394 C7.05883024,20.8939394 7.60248447,20.3503948 7.60248447,19.6847156 L7.60248447,16.8636364 L5.17391304,16.8636364 Z" id="Rectangle-2-copy-4"></path>
                    </g>
                </g>
            </g>
        </g>
    </g>
</svg>