<?xml version="1.0" encoding="UTF-8"?>
<svg width="17px" height="20px" viewBox="0 0 17 20" version="1.1" xmlns="http://www.w3.org/2000/svg" xmlns:xlink="http://www.w3.org/1999/xlink">
    <!-- Generator: Sketch 41 (35326) - http://www.bohemiancoding.com/sketch -->
    <title>apple [#173]</title>
    <desc>Created with Sketch.</desc>
    <defs></defs>
    <g id="Design-Desktop" stroke="none" stroke-width="1" fill="none" fill-rule="evenodd">
        <g id="Homepage" transform="translate(-566.000000, -8015.000000)" fill="#FFFFFF">
            <g id="Footer" transform="translate(0.000000, 7843.000000)">
                <g id="icons" transform="translate(566.000000, 171.000000)">
                    <path d="M11.5708873,4.1929553 C12.2999598,3.34796713 12.7914012,2.17098361 12.6569121,1 C11.6062792,1.03999944 10.3352055,1.67099061 9.58186427,2.51497879 C8.90537398,3.26396831 8.31483536,4.46095155 8.47359317,5.60893548 C9.64556963,5.69593427 10.8418148,5.03894346 11.5708873,4.1929553 M14.1989864,11.6248513 C14.2283111,14.6518089 16.9696641,15.6587948 17,15.6717946 C16.9777537,15.7427936 16.562152,17.1067745 15.5560117,18.5167548 C14.6853718,19.7347377 13.7823735,20.9477208 12.3596204,20.9737204 C10.9621472,20.9987201 10.5121648,20.1797315 8.91346355,20.1797315 C7.31577346,20.1797315 6.81624251,20.9477208 5.49359781,20.9987201 C4.1203933,21.0477194 3.07380517,19.6807385 2.19709802,18.4667555 C0.403235861,15.9837903 -0.966935065,11.4498537 0.87344212,8.38989656 C1.78756353,6.87091782 3.42064549,5.9079313 5.19428372,5.88393163 C6.54220833,5.85893198 7.81530441,6.75291947 8.63942936,6.75291947 C9.46355431,6.75291947 11.0106846,5.67793452 12.6366882,5.83593231 C13.3172232,5.86293193 15.2283842,6.09892862 16.4549652,7.81990453 C16.355868,7.87890371 14.1747177,9.09488669 14.1989864,11.6248513" id="apple-[#173]"></path>
                </g>
            </g>
        </g>
    </g>
</svg>