<?xml version="1.0" encoding="UTF-8"?>
<svg width="180px" height="33px" viewBox="0 0 180 33" version="1.1" xmlns="http://www.w3.org/2000/svg" xmlns:xlink="http://www.w3.org/1999/xlink">
    <!-- Generator: Sketch 41 (35326) - http://www.bohemiancoding.com/sketch -->
    <title>Logo</title>
    <desc>Created with Sketch.</desc>
    <defs>
        <linearGradient x1="100%" y1="0%" x2="15.8530809%" y2="89.2866704%" id="linearGradient-1">
            <stop stop-color="#FFAA5B" offset="0%"></stop>
            <stop stop-color="#FF9862" offset="100%"></stop>
        </linearGradient>
    </defs>
    <g id="Symbols" stroke="none" stroke-width="1" fill="none" fill-rule="evenodd">
        <g id="Topbar" transform="translate(0.000000, -3.000000)">
            <g id="Logo" transform="translate(0.000000, 3.000000)">
                <g id="words" transform="translate(40.000000, 7.000000)">
                    <path d="M126.591944,12.2643734 C126.591944,16.3974222 129.342778,19.8116801 133.503414,19.8116801 C135.807237,19.8116801 137.595279,18.9131911 138.592456,18.0147022 C139.005081,17.6553067 138.901925,17.3677903 138.661227,17.0802738 L137.698435,15.7145707 C137.423351,15.3551752 137.182654,15.4989334 136.770028,15.7505102 C136.08232,16.2177245 134.947601,16.7927573 133.709726,16.7927573 C131.474674,16.7927573 129.858559,14.8879609 129.755403,12.9472249 L139.108237,12.9472249 C139.417706,12.9472249 139.692789,12.695648 139.727175,12.3362525 C139.76156,12.0846756 139.795945,11.6174614 139.795945,11.3658845 C139.795945,7.52035202 137.045112,4.71706668 133.469028,4.71706668 C129.342778,4.71706668 126.591944,8.20320358 126.591944,12.2643734 L126.591944,12.2643734 L126.591944,12.2643734 Z M129.92733,10.6830329 C130.133643,8.88605513 131.57783,7.48441246 133.434643,7.48441246 C135.119528,7.48441246 136.494945,8.95793424 136.598101,10.6830329 L129.92733,10.6830329 L129.92733,10.6830329 Z M102.7179,18.7694329 C102.7179,19.1288285 103.027368,19.4522845 103.371223,19.4522845 L105.296806,19.4522845 C105.64066,19.4522845 105.950129,19.1288285 105.950129,18.7694329 L105.950129,10.0001814 C106.122056,9.53296713 107.291161,7.84380802 109.354286,7.84380802 C111.279869,7.84380802 112.277046,9.10169246 112.277046,11.401824 L112.277046,18.7694329 C112.277046,19.1288285 112.55213,19.4522845 112.930369,19.4522845 L114.752797,19.4522845 C115.096651,19.4522845 115.40612,19.1288285 115.40612,18.7694329 L115.40612,11.3299449 C115.40612,10.6111538 115.371734,9.92830224 115.302963,9.60484624 C115.543661,9.38920891 116.747151,7.84380802 118.844661,7.84380802 C120.701474,7.84380802 121.698651,9.13763202 121.698651,11.401824 L121.698651,18.7694329 C121.698651,19.1288285 121.973735,19.4522845 122.351974,19.4522845 L124.277558,19.4522845 C124.655797,19.4522845 124.930881,19.1288285 124.930881,18.7694329 L124.930881,11.5455822 C124.930881,7.80786846 123.452308,4.71706668 119.257286,4.71706668 C116.643995,4.71706668 114.64964,6.62186313 114.271401,7.01719823 C113.274223,5.54367646 111.830036,4.71706668 109.835682,4.71706668 C107.188004,4.71706668 105.606275,6.40622579 105.296806,6.72968179 L104.918567,5.5077369 C104.81541,5.25616001 104.643483,5.07646224 104.334014,5.07646224 L103.371223,5.07646224 C103.027368,5.07646224 102.7179,5.39991823 102.7179,5.75931379 L102.7179,18.7694329 L102.7179,18.7694329 Z" id="me" fill="#6FD0D1"></path>
                    <path d="M0,12.1579996 C0,16.5524572 3.49703223,19.8116801 7.53484264,19.8116801 C10.0224223,19.8116801 11.9692237,18.6032042 13.1228839,16.7355597 C13.375247,16.3693548 13.2310395,16.0031501 12.8705207,15.7101862 L11.89712,14.9045357 C11.5726531,14.6481923 11.2481862,14.6481923 10.9237193,14.9777766 C10.1666297,15.7101862 9.4095403,16.6623187 7.57089451,16.6623187 C5.22752241,16.6623187 3.42492848,14.6481923 3.42492848,12.1213791 C3.42492848,9.6311864 5.26357428,7.61705999 7.60694642,7.61705999 C8.7966584,7.61705999 9.84216284,8.27622862 10.4910967,9.00863825 C10.7795117,9.26498163 11.0318749,9.5579455 11.4644974,9.15512015 L12.6542094,8.05650574 C12.9786763,7.80016239 13.0507801,7.36071662 12.7984169,7.0311323 C11.4644974,5.34659019 9.77005911,4.43107816 7.57089451,4.43107816 C3.56913598,4.43107816 0,7.83678287 0,12.1579996 L0,12.1579996 L0,12.1579996 Z M13.9914942,12.0847586 C13.9914942,16.2961139 17.2361633,19.8116801 21.2739737,19.8116801 C25.3117841,19.8116801 28.5564532,16.2961139 28.5564532,12.0847586 C28.5564532,7.94664433 25.3117841,4.43107816 21.2739737,4.43107816 C17.2361633,4.43107816 13.9914942,7.94664433 13.9914942,12.0847586 L13.9914942,12.0847586 L13.9914942,12.0847586 Z M17.2001114,12.0847586 C17.2001114,9.6311864 19.0027053,7.61705999 21.2739737,7.61705999 C23.545242,7.61705999 25.347836,9.6311864 25.347836,12.0847586 C25.347836,14.6115718 23.545242,16.6623187 21.2739737,16.6623187 C19.0027053,16.6623187 17.2001114,14.6115718 17.2001114,12.0847586 L17.2001114,12.0847586 L17.2001114,12.0847586 Z M29.9598341,18.7496861 C29.9598341,19.1158909 30.284301,19.4454753 30.6448198,19.4454753 L32.5195175,19.4454753 C33.1323995,19.4454753 33.3487108,19.2257524 33.3487108,18.7496861 L33.3487108,9.81428879 C33.5289701,9.30160212 35.0792009,7.61705999 37.3504692,7.61705999 C39.2251669,7.61705999 40.3427752,8.89877677 40.3427752,11.2424876 L40.3427752,18.7496861 C40.3427752,19.1158909 40.6311902,19.4454753 41.0277609,19.4454753 L43.082718,19.4454753 C43.4432368,19.4454753 43.7677037,19.1158909 43.7677037,18.7496861 L43.7677037,11.3889695 C43.7677037,7.5804395 42.1453691,4.43107816 37.74704,4.43107816 C34.8628896,4.43107816 32.95214,6.18886124 32.6997769,6.48182508 L32.2671543,5.23672874 C32.1950506,4.98038538 31.9787393,4.79728297 31.6903243,4.79728297 L30.6448198,4.79728297 C30.284301,4.79728297 29.9598341,5.12686729 29.9598341,5.4930721 L29.9598341,18.7496861 L29.9598341,18.7496861 Z M45.7049275,18.7496861 C45.7049275,19.1158909 46.0293944,19.4454753 46.3899132,19.4454753 L48.2646109,19.4454753 C48.8774929,19.4454753 49.0938042,19.2257524 49.0938042,18.7496861 L49.0938042,9.81428879 C49.2740635,9.30160212 50.8242943,7.61705999 53.0955626,7.61705999 C54.9702603,7.61705999 56.0878686,8.89877677 56.0878686,11.2424876 L56.0878686,18.7496861 C56.0878686,19.1158909 56.3762836,19.4454753 56.7728543,19.4454753 L58.8278114,19.4454753 C59.1883302,19.4454753 59.5127971,19.1158909 59.5127971,18.7496861 L59.5127971,11.3889695 C59.5127971,7.5804395 57.8904626,4.43107816 53.4921334,4.43107816 C50.6079831,4.43107816 48.6972335,6.18886124 48.4448703,6.48182508 L48.0122477,5.23672874 C47.940144,4.98038538 47.7238327,4.79728297 47.4354177,4.79728297 L46.3899132,4.79728297 C46.0293944,4.79728297 45.7049275,5.12686729 45.7049275,5.4930721 L45.7049275,18.7496861 L45.7049275,18.7496861 Z M68.1977298,19.8116801 C70.6132057,19.8116801 72.4879034,18.896168 73.5334078,17.980656 C73.9660303,17.6144512 73.8578747,17.3214874 73.6055116,17.0285235 L72.596059,15.6369453 C72.307644,15.2707404 72.0552808,15.4172224 71.6226583,15.6735657 C70.9016207,16.149632 69.7119087,16.7355597 68.4140411,16.7355597 C66.0706689,16.7355597 64.3762307,14.7946742 64.268075,12.8171682 L74.074186,12.8171682 C74.398653,12.8171682 74.687068,12.5608249 74.7231199,12.1946201 C74.7591719,11.9382767 74.7952236,11.4622105 74.7952236,11.2058671 C74.7952236,7.28747566 71.9110733,4.43107816 68.1616779,4.43107816 C63.8354525,4.43107816 60.9513022,7.98326483 60.9513022,12.1213791 C60.9513022,16.3327344 63.8354525,19.8116801 68.1977298,19.8116801 Z M64.4483344,10.5100779 C64.6646457,8.67905389 66.1788246,7.25085518 68.1256261,7.25085518 C69.8921681,7.25085518 71.3342432,8.75229488 71.4423988,10.5100779 L64.4483344,10.5100779 L64.4483344,10.5100779 Z M75.8870804,12.1579996 C75.8870804,16.5524572 79.3841127,19.8116801 83.4219232,19.8116801 C85.9095025,19.8116801 87.8563044,18.6032042 89.009964,16.7355597 C89.2623273,16.3693548 89.1181198,16.0031501 88.7576008,15.7101862 L87.7842002,14.9045357 C87.4597336,14.6481923 87.1352663,14.6481923 86.8107997,14.9777766 C86.0537099,15.7101862 85.2966209,16.6623187 83.4579748,16.6623187 C81.114603,16.6623187 79.3120086,14.6481923 79.3120086,12.1213791 C79.3120086,9.6311864 81.1506547,7.61705999 83.4940265,7.61705999 C84.6837386,7.61705999 85.7292433,8.27622862 86.3781773,9.00863825 C86.6665922,9.26498163 86.9189555,9.5579455 87.3515778,9.15512015 L88.54129,8.05650574 C88.8657566,7.80016239 88.9378607,7.36071662 88.6854974,7.0311323 C87.3515778,5.34659019 85.6571392,4.43107816 83.4579748,4.43107816 C79.4562168,4.43107816 75.8870804,7.83678287 75.8870804,12.1579996 L75.8870804,12.1579996 L75.8870804,12.1579996 Z M92.2649336,15.4538428 C92.2649336,18.053897 93.0941274,19.8116801 95.9422258,19.8116801 C97.6727161,19.8116801 99.7997763,18.9327885 100.160295,18.7130656 C100.520814,18.5299633 100.665022,18.2369994 100.484762,17.8341741 L99.8358288,16.222873 C99.6916213,15.8932886 99.4753097,15.6735657 99.0066349,15.8932886 C98.5740125,16.1130115 97.5645603,16.5524572 96.8074705,16.5524572 C96.1224849,16.5524572 95.6538108,16.3327344 95.6538108,15.087638 L95.6538108,7.83678287 L99.3311023,7.83678287 C99.727673,7.83678287 100.016088,7.50719855 100.016088,7.14099374 L100.016088,5.4930721 C100.016088,5.09024682 99.727673,4.79728297 99.3311023,4.79728297 L95.6538108,4.79728297 L95.6538108,0.695789133 C95.6538108,0.329584327 95.3653951,0 95.0048769,0 L92.94992,0.0366204807 C92.5894009,0.0366204807 92.2649336,0.366204807 92.2649336,0.732409614 L92.2649336,4.79728297 L90.7507548,4.79728297 C90.3541841,4.79728297 90.0657692,5.09024682 90.0657692,5.4930721 L90.0657692,7.14099374 C90.0657692,7.50719855 90.3541841,7.83678287 90.7507548,7.83678287 L92.2649336,7.83678287 L92.2649336,15.4538428 L92.2649336,15.4538428 Z" id="connect" fill="#888888"></path>
                </g>
                <g id="symbol">
                    <path d="M18.3603164,31.1837209 C25.6795319,31.1837209 31.6129284,25.2605176 31.6129284,17.953876 C31.6129284,10.6472344 25.6795319,4.72403101 18.3603164,4.72403101 C11.0411008,4.72403101 5.10770433,10.6472344 5.10770433,17.953876 C5.10770433,25.2605176 11.0411008,31.1837209 18.3603164,31.1837209 Z" id="Oval-4" fill="#F5F5F5"></path>
                    <path d="M13.6173674,0 C7.82586341,0 3.13307611,4.73971519 3.13307611,10.5838087 L3.13307611,24.6613392 C3.1319888,29.255048 -3.77943437,32.8036593 3.1319888,32.8036593 L25.4923157,32.8036593 C31.2849071,32.8036593 35.9771507,28.0672375 35.9771507,22.2209485 L35.9771507,10.5832598 C35.9771507,4.73971519 31.2816452,0 25.4944902,0 L13.6173674,0 Z M20.2491257,17.7517042 L20.2491257,21.8775646 C20.2491257,22.3658717 19.8530318,22.7617228 19.3625055,22.7617228 L18.6007452,22.7617228 C18.1110785,22.7617228 17.714125,22.368595 17.714125,21.8775646 L17.714125,17.7517042 L13.883022,17.7517042 C13.3928467,17.7517042 12.9954812,17.3539159 12.9954812,16.868968 L12.9954812,15.9385475 C12.9954812,15.4510257 13.3977901,15.0558114 13.883022,15.0558114 L17.714125,15.0558114 L17.714125,10.9267752 C17.714125,10.4380923 18.1102189,10.0419365 18.6007452,10.0419365 L19.3625055,10.0419365 C19.8521723,10.0419365 20.2491257,10.4353668 20.2491257,10.9267752 L20.2491257,15.0558114 L24.0802288,15.0558114 C24.570404,15.0558114 24.9677696,15.4535996 24.9677696,15.9385475 L24.9677696,16.868968 C24.9677696,17.3564897 24.5654606,17.7517042 24.0802288,17.7517042 L20.2491257,17.7517042 Z" id="Combined-Shape" fill="url(#linearGradient-1)" transform="translate(18.018718, 16.401830) scale(-1, 1) translate(-18.018718, -16.401830) "></path>
                </g>
            </g>
        </g>
    </g>
</svg>