<?xml version="1.0" encoding="UTF-8"?>
<svg width="20px" height="16px" viewBox="0 0 20 16" version="1.1" xmlns="http://www.w3.org/2000/svg" xmlns:xlink="http://www.w3.org/1999/xlink">
    <!-- Generator: Sketch 41 (35326) - http://www.bohemiancoding.com/sketch -->
    <title>twitter [#154]</title>
    <desc>Created with Sketch.</desc>
    <defs></defs>
    <g id="Design-Desktop" stroke="none" stroke-width="1" fill="none" fill-rule="evenodd">
        <g id="Homepage" transform="translate(-765.000000, -8017.000000)" fill="#FFFFFF">
            <g id="Footer" transform="translate(0.000000, 7843.000000)">
                <g id="icons" transform="translate(566.000000, 171.000000)">
                    <path d="M205.29,19 C212.837,19 216.965,12.8436531 216.965,7.50546136 C216.965,7.33021272 216.965,7.15594862 216.953,6.98266906 C217.756,6.41163417 218.449,5.70276326 219,4.89149989 C218.252,5.21836814 217.457,5.4329985 216.644,5.52751462 C217.5,5.0224441 218.141,4.2289025 218.448,3.29260218 C217.642,3.7632137 216.761,4.09500467 215.842,4.27320694 C214.288,2.64674202 211.689,2.56797859 210.036,4.09795829 C208.971,5.08447031 208.518,6.55537743 208.849,7.9583511 C205.55,7.79491698 202.476,6.2609991 200.392,3.73761558 C199.303,5.58363357 199.86,7.9445675 201.663,9.12995718 C201.01,9.11125087 200.371,8.93797131 199.8,8.62488666 L199.8,8.67608289 C199.801,10.5988952 201.178,12.2548964 203.092,12.6359145 C202.488,12.7983641 201.854,12.8219931 201.24,12.7048325 C201.777,14.3509883 203.318,15.47829 205.073,15.5107799 C203.62,16.6351279 201.825,17.2455445 199.977,17.2435754 C199.651,17.2425909 199.325,17.2238846 199,17.1854874 C200.877,18.3708771 203.06,19 205.29,18.9970464" id="twitter-[#154]"></path>
                </g>
            </g>
        </g>
    </g>
</svg>