<?xml version="1.0" encoding="UTF-8"?>
<svg width="58px" height="70px" viewBox="0 0 58 46" version="1.1" xmlns="http://www.w3.org/2000/svg" xmlns:xlink="http://www.w3.org/1999/xlink">
    <!-- Generator: Sketch 41 (35326) - http://www.bohemiancoding.com/sketch -->
    <title>highlights-privacy</title>
    <desc>Created with Sketch.</desc>
    <defs></defs>
    <g id="Design-Desktop" stroke="none" stroke-width="1" fill="none" fill-rule="evenodd" stroke-linecap="round" stroke-linejoin="round">
        <g id="Homepage" transform="translate(-692.000000, -5086.000000)" stroke="#E4FF88" stroke-width="2">
            <g id="Highlights" transform="translate(0.000000, 4828.000000)">
                <g id="Confidential" transform="translate(614.000000, 259.000000)">
                    <g id="highlights-privacy" transform="translate(79.000000, 0.000000)">
                        <path d="M0,24 C0,24 12.6,8 28,8 C43.3,8 56,24 56,24 C56,24 43.2,40 28,40 C12.7,40 0,24 0,24 L0,24 Z" id="Stroke-306"></path>
                        <path d="M28,8 C34.627,8 40,13.373 40,20 C40,26.627 34.627,32 28,32 C21.373,32 16,26.627 16,20 C16,13.373 21.373,8 28,8 L28,8 Z" id="Stroke-307"></path>
                        <path d="M28,24 C25.8,24 24,22.2 24,20" id="Stroke-308"></path>
                        <path d="M4,44 L48,0" id="Stroke-314"></path>
                    </g>
                </g>
            </g>
        </g>
    </g>
</svg>