<?xml version="1.0" encoding="UTF-8"?>
<svg width="60px" height="70px" viewBox="0 0 60 62" version="1.1" xmlns="http://www.w3.org/2000/svg" xmlns:xlink="http://www.w3.org/1999/xlink">
    <!-- Generator: Sketch 41 (35326) - http://www.bohemiancoding.com/sketch -->
    <title>highlights-simple</title>
    <desc>Created with Sketch.</desc>
    <defs></defs>
    <g id="Design-Desktop" stroke="none" stroke-width="1" fill="none" fill-rule="evenodd" stroke-linecap="round" stroke-linejoin="round">
        <g id="Homepage" transform="translate(-1050.000000, -5071.000000)" stroke="#FFA078" stroke-width="2">
            <g id="Highlights" transform="translate(0.000000, 4828.000000)">
                <g id="Simple" transform="translate(956.000000, 244.000000)">
                    <g id="highlights-simple" transform="translate(95.000000, 0.000000)">
                        <polygon id="Stroke-92" points="38 46 26 46 26 34 38 34"></polygon>
                        <path d="M32,22 L32,34" id="Stroke-93"></path>
                        <path d="M24,0 L24,8" id="Stroke-99"></path>
                        <path d="M14,4 L14,12" id="Stroke-100"></path>
                        <path d="M34,4 L34,12" id="Stroke-101"></path>
                        <path d="M48,22 L58,22 L58,32 C58,34.209 56.209,36 54,36 L48,36" id="Stroke-398"></path>
                        <path d="M24,60 L24,60 C10.745,60 0,49.255 0,36 L0,22 L48,22 L48,36 C48,49.255 37.255,60 24,60 L24,60 Z" id="Stroke-399"></path>
                    </g>
                </g>
            </g>
        </g>
    </g>
</svg>